# xmcd
#
# Track frame offsets:
#	150
#	60269
#	97512
#	166631
#	199879
#	216751
#	262396
#
# Disc length: 4161 seconds
#
# Revision: 1
# Processed by: cddbd v1.5.2PL0 Copyright (c) Steve Scherf et al.
# Submitted via: audiograbber 1.83.01
#
DISCID=56103f07
DTITLE=Dave Brubeck Quartett - Live In Portland 1959
DYEAR=2010
DGENRE=Jazz
TTITLE0=Two Part Contention
TTITLE1=The Lonesome Road
TTITLE2=Take The "A" Train
TTITLE3=When The Saints Go Marching In
TTITLE4=I'm In A Dancing Mood
TTITLE5=Someday My Prince Will Come
TTITLE6=Drum Feature
EXTD=
EXTT0=
EXTT1=
EXTT2=
EXTT3=
EXTT4=
EXTT5=
EXTT6=
PLAYORDER=
